<svg height="512" viewBox="0 0 512 512" width="512" xmlns="http://www.w3.org/2000/svg"><g id="_54_Click_Here" data-name="54 Click Here"><path d="m373.89 17h-235.77a81.89 81.89 0 0 0 -81.81 81.8v235.78a81.89 81.89 0 0 0 81.81 81.8h151.11l-8.94-44.33a28.28 28.28 0 0 1 13.23-30.05 28.84 28.84 0 0 1 13.13-4.11l-36.15-44.4v40.81a6 6 0 0 1 -12 0v-87.54a6 6 0 0 1 6-6h28.1a26.32 26.32 0 0 1 0 52.64h-6.7l30.24 37.11a6 6 0 0 1 -.63 8.23 28.65 28.65 0 0 1 10.81 5.52l80.27 65.32a82.36 82.36 0 0 0 49.1-75v-235.78a81.89 81.89 0 0 0 -81.8-81.8zm-277 125.83c0-27.43 18.46-49.75 41.16-49.75 11.94 0 23.27 6.23 31.08 17.08a6 6 0 1 1 -9.74 7c-5.53-7.68-13.31-12.09-21.34-12.09-16.08 0-29.16 16.93-29.16 37.75s13.08 37.74 29.16 37.74c8 0 15.82-4.4 21.34-12.08a6 6 0 1 1 9.74 7c-7.8 10.85-19.13 17.07-31.08 17.07-22.66.02-41.12-22.3-41.12-49.72zm89.11 191.47a6 6 0 0 1 -12 0v-37.77h-30v37.77a6 6 0 0 1 -12 0v-87.54a6 6 0 0 1 12 0v37.77h30v-37.77a6 6 0 0 1 12 0zm-1.5-154.3v-80.92a6 6 0 1 1 12 0v80.92a.6.6 0 0 0 .6.6h26.65a6 6 0 0 1 0 12h-26.65a12.61 12.61 0 0 1 -12.6-12.6zm59.5 104.53a6 6 0 0 1 0 12h-35.27v31.77h35.27a6 6 0 1 1 0 12h-38.41a8.87 8.87 0 0 1 -8.86-8.85v-81.84a8.87 8.87 0 0 1 8.86-8.85h38.41a6 6 0 0 1 0 12h-35.27v31.77zm11.9-98a6 6 0 0 1 -12 0v-87.45a6 6 0 1 1 12 0zm52.91 6c-22.69 0-41.16-22.32-41.16-49.74s18.47-49.75 41.16-49.75c11.95 0 23.28 6.23 31.09 17.08a6 6 0 0 1 -9.75 7c-5.52-7.68-13.3-12.09-21.34-12.09-16.08 0-29.16 16.93-29.16 37.75s13.08 37.74 29.16 37.74c8 0 15.82-4.4 21.34-12.08a6 6 0 0 1 9.75 7c-7.77 10.91-19.1 17.13-31.05 17.13zm65.19 92a6 6 0 0 1 0 12h-35.27v31.77h35.27a6 6 0 0 1 0 12h-38.42a8.86 8.86 0 0 1 -8.85-8.85v-81.84a8.86 8.86 0 0 1 8.85-8.85h38.42a6 6 0 0 1 0 12h-35.27v31.77zm39-94.24a6 6 0 0 1 -8.47-.46l-34.39-38.31-3.98 4.48v30.53a6 6 0 0 1 -12 0v-87.45a6 6 0 1 1 12 0v39l36.8-41a6 6 0 1 1 8.93 8l-33.61 37.44 35.26 39.28a6 6 0 0 1 -.46 8.49z"/><path d="m306.92 267.08a14.34 14.34 0 0 0 -14.32-14.32h-22.1v28.64h22.1a14.33 14.33 0 0 0 14.32-14.32z"/><path d="m411.1 428.73-92.36-75.17a16.08 16.08 0 0 0 -10.29-3.79 17.09 17.09 0 0 0 -8.72 2.46 16.24 16.24 0 0 0 -7.68 17.45l23.52 116.73a10.69 10.69 0 0 0 20 2.84l8.88-17a45.57 45.57 0 0 1 40.55-24.61h.16l19.21.07a10.69 10.69 0 0 0 6.74-19z"/></g></svg>