<svg id="Capa_1" enable-background="new 0 0 512 512" height="64" viewBox="0 0 512 512" width="64" xmlns="http://www.w3.org/2000/svg"><path d="m421.401 258.995c0-16.133-13.079-29.212-29.212-29.212-16.133 0-29.212 13.079-29.212 29.212v-19c0-16.133-13.079-29.212-29.212-29.212-16.133 0-29.212 13.079-29.212 29.212v-16c0-16.133-13.079-29.212-29.212-29.212-16.133 0-29.212 13.079-29.212 29.212v-118.5c0-16.133-13.079-29.212-29.212-29.212-16.133 0-29.212 13.079-29.212 29.212v152.57c-25.991 2.076-46.508 23.877-46.508 50.393v63.439l66.057 82.41-.377 57.693h168.437l.276-57.993 45.811-71.352z"/><path d="m201.267 0h29.957v48.598h-29.957z"/><path d="m293.293 115.668h48.598v29.957h-48.598z"/><path d="m90.599 115.668h48.598v29.957h-48.598z"/><path d="m266.54 39.006h52.734v29.957h-52.734z" transform="matrix(.707 -.707 .707 .707 47.617 222.928)"/><path d="m124.605 27.618h29.957v52.734h-29.957z" transform="matrix(.707 -.707 .707 .707 2.71 114.512)"/></svg>