<?xml version="1.0" encoding="utf-8"?>
<!-- Generator: Adobe Illustrator 26.0.2, SVG Export Plug-In . SVG Version: 6.00 Build 0)  -->
<svg version="1.1" xmlns="http://www.w3.org/2000/svg" xmlns:xlink="http://www.w3.org/1999/xlink" x="0px" y="0px"
	 viewBox="0 0 841.9 595.3" style="enable-background:new 0 0 841.9 595.3;" xml:space="preserve">
<style type="text/css">
	.st0{display:none;}
	.st1{fill:#EC484A;}
	.st2{fill:#FFFFFF;}
	.st3{fill:#4FB65C;}
	.st4{fill:#395DA9;}
	.st5{fill:none;stroke:#221F1F;stroke-width:9;stroke-miterlimit:10;}
	.st6{fill:none;stroke:#FFFFFF;stroke-width:9;stroke-miterlimit:10;}
</style>
<g id="Layer_1" class="st0">
</g>
<g id="J">
	<g>
		<g>
			<path class="st1" d="M395.4,289c-5.8,0-19.6-1.9-25.1-6.4c-1.5-1.2-1.7-3.4-0.5-4.9c2.6-3.1,8.1,1.1,11,2.1
				c5.8,2,12.2,2.9,18.3,1.8s11.9-4.1,15.8-9s5.6-11.4,4.1-17.4c-1.9-7.4-8.6-12.9-15.9-15c-7.6-2.1-16.3-1.1-23.6,1.7
				c-1.2,0.5-2.4,1-3.7,1.5c-1.2,0.5-2.4,1.2-3.7,1c-2.2-0.2-3.5-3-2.5-4.8c0.6-1.2,1.8-1.9,3-2.5c4.2-2.2,9.1-3.4,13.8-4.3
				c4.9-0.9,10-1.2,14.9-0.2c1,0.2,2.1,0.5,3.1,0.8c7,2.2,13.4,6.7,17.5,12.8c2.8,4.2,4.4,9.1,4.4,14.2
				C426.1,275.6,411.7,289,395.4,289z"/>
		</g>
	</g>
	<g>
		<g>
			<path class="st2" d="M937.4,128.2c-5.8,0-19.6-1.9-25.1-6.4c-1.5-1.2-1.7-3.4-0.5-4.9c2.6-3.1,8.1,1.1,11,2.1
				c5.8,2,12.2,2.9,18.3,1.8s11.9-4.1,15.8-9c3.9-4.8,5.6-11.4,4.1-17.4c-1.9-7.4-8.6-12.9-15.9-15c-7.6-2.1-16.3-1.1-23.6,1.7
				c-1.2,0.5-2.4,1-3.7,1.5c-1.2,0.5-2.4,1.2-3.7,1c-2.2-0.2-3.5-3-2.5-4.8c0.6-1.2,1.8-1.9,3-2.5c4.2-2.2,9.1-3.4,13.8-4.3
				c4.9-0.9,10-1.2,14.9-0.2c1,0.2,2.1,0.5,3.1,0.8c7,2.2,13.4,6.7,17.5,12.8c2.8,4.2,4.4,9.1,4.4,14.2
				C968.1,114.8,953.7,128.2,937.4,128.2z"/>
		</g>
	</g>
</g>
<g id="U">
	<g>
		<g>
			<path class="st3" d="M369,335.6c0-5.8,1.9-19.6,6.4-25.1c1.2-1.5,3.4-1.7,4.9-0.5c3.1,2.6-1.1,8.1-2.1,11
				c-2,5.8-2.9,12.2-1.8,18.3s4.1,11.9,9,15.8s11.4,5.6,17.4,4.1c7.4-1.9,12.9-8.6,15-15.9c2.1-7.6,1.1-16.3-1.7-23.6
				c-0.5-1.2-1-2.4-1.5-3.7c-0.5-1.2-1.2-2.4-1-3.7c0.2-2.2,3-3.5,4.8-2.5c1.2,0.6,1.9,1.8,2.5,3c2.2,4.2,3.4,9.1,4.3,13.8
				c0.9,4.9,1.2,10,0.2,14.9c-0.2,1-0.5,2.1-0.8,3.1c-2.2,7-6.7,13.4-12.8,17.5c-4.2,2.8-9.1,4.4-14.2,4.4
				C382.4,366.3,369,351.9,369,335.6z"/>
		</g>
	</g>
	<g>
		<g>
			<path class="st2" d="M910.9,174.8c0-5.8,1.9-19.6,6.4-25.1c1.2-1.5,3.4-1.7,4.9-0.5c3.1,2.6-1.1,8.1-2.1,11
				c-2,5.8-2.9,12.2-1.8,18.3s4.1,11.9,9,15.8c4.8,3.9,11.4,5.6,17.4,4.1c7.4-1.9,12.9-8.6,15-15.9c2.1-7.6,1.1-16.3-1.7-23.6
				c-0.5-1.2-1-2.4-1.5-3.7c-0.5-1.2-1.2-2.4-1-3.7c0.2-2.2,3-3.5,4.8-2.5c1.2,0.6,1.9,1.8,2.5,3c2.2,4.2,3.4,9.1,4.3,13.8
				c0.9,4.9,1.2,10,0.2,14.9c-0.2,1-0.5,2.1-0.8,3.1c-2.2,7-6.7,13.4-12.8,17.5c-4.2,2.8-9.1,4.4-14.2,4.4
				C924.4,205.5,910.9,191.1,910.9,174.8z"/>
		</g>
	</g>
</g>
<g id="S">
	<g>
		<path class="st4" d="M492.4,344.6c0,5.7-1.9,10.3-5.6,13.8c-6,5.7-17,8.4-34.1,8.4c-2.9,0-6-0.1-9.3-0.2c-1.9-0.1-3.4-1.8-3.3-3.7
			l0,0c0.1-1.9,1.8-3.4,3.7-3.3c20.2,1,32.7-1.1,38.2-6.3c2.3-2.2,3.4-4.9,3.4-8.7c0-4.7-2-7.8-6-9.3c-2.9-1.1-7.4-1.1-11.8-1
			c-4.9,0-10,0.1-14.4-1.3c-4.9-1.6-9.2-5.6-11.6-10.7c-2.1-4.5-2.3-9.6-0.6-14c1.6-4.2,4.9-7.4,8.8-9.5c2.8-1.6,5.9-2.6,9.1-3.1
			c5-0.7,10.1-0.1,15-1.4c2.6-0.7,5.1-1.9,7-3.8c1.1-1.1,2-2.3,2.6-3.8c1-2.6,0.9-5.7-0.4-8.5c-1.5-3.3-4.4-6-7.4-7
			c-3.3-1.1-7.8-1-12.1-1c-5,0.1-10.2,0.1-14.4-1.5c-6.6-2.5-10.4-8.3-10.4-15.8c0-6.5,2.1-11.8,6.2-15.8c7.1-6.7,20.3-9.5,40.3-8.6
			c2,0.1,3.5,1.8,3.3,3.7l0,0c-0.1,1.9-1.7,3.4-3.6,3.3c-17.8-0.8-29.7,1.5-35.2,6.7c-2.7,2.6-4.1,6.1-4,10.6c0,4.7,2,7.8,6,9.3
			c2.9,1.1,7.4,1.1,11.8,1c4.9-0.1,10-0.1,14.3,1.3c4.9,1.6,9.2,5.6,11.6,10.7c2.1,4.5,2.3,9.6,0.6,14c-0.8,2.1-2.1,4-3.7,5.7
			c-1.5,1.6-3.3,2.9-5.2,3.9c-1.9,1-4,1.8-6.1,2.3c-2.1,0.5-4.3,0.9-6.5,1c-2.6,0.2-5.3,0.1-7.9,0.3c-1.6,0.2-3.1,0.6-4.6,1.1
			c-0.8,0.3-1.6,0.6-2.4,1c-2.9,1.5-5.1,3.7-6.1,6.2c-1,2.6-0.9,5.7,0.4,8.5c1.5,3.3,4.4,6,7.4,7c3.3,1.1,7.8,1,12.1,1
			c5-0.1,10.2-0.1,14.4,1.5C488.6,331.3,492.4,337.1,492.4,344.6z"/>
	</g>
	<g>
		<path class="st2" d="M1034.4,183.8c0,5.7-1.9,10.3-5.6,13.8c-6,5.7-17,8.4-34.1,8.4c-2.9,0-6-0.1-9.3-0.2
			c-1.9-0.1-3.4-1.8-3.3-3.7l0,0c0.1-1.9,1.8-3.4,3.7-3.3c20.2,1,32.7-1.1,38.2-6.3c2.3-2.2,3.4-4.9,3.4-8.7c0-4.7-2-7.8-6-9.3
			c-2.9-1.1-7.4-1.1-11.8-1c-4.9,0-10,0.1-14.4-1.3c-4.9-1.6-9.2-5.6-11.6-10.7c-2.1-4.5-2.3-9.6-0.6-14c1.6-4.2,4.9-7.4,8.8-9.5
			c2.8-1.6,5.9-2.6,9.1-3.1c5-0.7,10.1-0.1,15-1.4c2.6-0.7,5.1-1.9,7-3.8c1.1-1.1,2-2.3,2.6-3.8c1-2.6,0.9-5.7-0.4-8.5
			c-1.5-3.3-4.4-6-7.4-7c-3.3-1.1-7.8-1-12.1-1c-5,0.1-10.2,0.1-14.4-1.5c-6.6-2.5-10.4-8.3-10.4-15.8c0-6.5,2.1-11.8,6.2-15.8
			c7.1-6.7,20.3-9.5,40.3-8.6c2,0.1,3.5,1.8,3.3,3.7l0,0c-0.1,1.9-1.7,3.4-3.6,3.3c-17.8-0.8-29.7,1.5-35.2,6.7
			c-2.7,2.6-4.1,6.1-4,10.6c0,4.7,2,7.8,6,9.3c2.9,1.1,7.4,1.1,11.8,1c4.9-0.1,10-0.1,14.3,1.3c4.9,1.6,9.2,5.6,11.6,10.7
			c2.1,4.5,2.3,9.6,0.6,14c-0.8,2.1-2.1,4-3.7,5.7c-1.5,1.6-3.3,2.9-5.2,3.9c-1.9,1-4,1.8-6.1,2.3c-2.1,0.5-4.3,0.9-6.5,1
			c-2.6,0.2-5.3,0.1-7.9,0.3c-1.6,0.2-3.1,0.6-4.6,1.1c-0.8,0.3-1.6,0.6-2.4,1c-2.9,1.5-5.1,3.7-6.1,6.2c-1,2.6-0.9,5.7,0.4,8.5
			c1.5,3.3,4.4,6,7.4,7c3.3,1.1,7.8,1,12.1,1c5-0.1,10.2-0.1,14.4,1.5C1030.6,170.5,1034.4,176.3,1034.4,183.8z"/>
	</g>
</g>
<g id="Retancale">
	<path class="st5" d="M491.1,385.7H370.2c-15.2,0-27.6-12.3-27.6-27.6V237.2c0-15.2,12.3-27.6,27.6-27.6h120.9
		c15.2,0,27.6,12.3,27.6,27.6v120.9C518.7,373.3,506.4,385.7,491.1,385.7z"/>
	<path class="st6" d="M1033.1,224.9H912.2c-15.2,0-27.6-12.3-27.6-27.6V76.4c0-15.2,12.3-27.6,27.6-27.6h120.9
		c15.2,0,27.6,12.3,27.6,27.6v120.9C1060.7,212.5,1048.4,224.9,1033.1,224.9z"/>
</g>
</svg>
