<svg width="64" height="64" viewBox="0 0 512 512" fill="none" xmlns="http://www.w3.org/2000/svg">
<path d="M373.89 17H138.12C116.431 17.0212 95.636 25.6458 80.2986 40.9814C64.9611 56.317 56.3339 77.1109 56.3101 98.8V334.58C56.3339 356.269 64.9611 377.063 80.2986 392.399C95.636 407.734 116.431 416.359 138.12 416.38H289.23L280.29 372.05C279.094 366.287 279.726 360.295 282.098 354.908C284.469 349.522 288.462 345.009 293.52 342C297.501 339.591 302.006 338.181 306.65 337.89L270.5 293.49V334.3C270.5 335.891 269.868 337.417 268.743 338.543C267.617 339.668 266.091 340.3 264.5 340.3C262.909 340.3 261.383 339.668 260.257 338.543C259.132 337.417 258.5 335.891 258.5 334.3V246.76C258.5 245.169 259.132 243.643 260.257 242.517C261.383 241.392 262.909 240.76 264.5 240.76H292.6C299.581 240.76 306.275 243.533 311.211 248.469C316.147 253.405 318.92 260.099 318.92 267.08C318.92 274.06 316.147 280.755 311.211 285.691C306.275 290.627 299.581 293.4 292.6 293.4H285.9L316.14 330.51C317.108 331.702 317.582 333.22 317.465 334.751C317.348 336.282 316.648 337.709 315.51 338.74C319.466 339.787 323.152 341.669 326.32 344.26L406.59 409.58C421.143 403.156 433.524 392.655 442.238 379.345C450.951 366.036 455.623 350.488 455.69 334.58V98.8C455.666 77.1126 447.04 56.3203 431.705 40.985C416.37 25.6497 395.577 17.0238 373.89 17ZM96.8901 142.83C96.8901 115.4 115.35 93.08 138.05 93.08C149.99 93.08 161.32 99.31 169.13 110.16C169.618 110.798 169.974 111.527 170.175 112.305C170.376 113.082 170.419 113.892 170.301 114.687C170.184 115.482 169.908 116.244 169.49 116.93C169.072 117.616 168.52 118.211 167.868 118.68C167.216 119.149 166.476 119.482 165.692 119.659C164.909 119.837 164.098 119.855 163.307 119.714C162.517 119.572 161.763 119.273 161.09 118.834C160.417 118.395 159.839 117.826 159.39 117.16C153.86 109.48 146.08 105.07 138.05 105.07C121.97 105.07 108.89 122 108.89 142.82C108.89 163.64 121.97 180.56 138.05 180.56C146.05 180.56 153.87 176.16 159.39 168.48C159.839 167.814 160.417 167.245 161.09 166.806C161.763 166.367 162.517 166.068 163.307 165.926C164.098 165.785 164.909 165.803 165.692 165.981C166.476 166.158 167.216 166.491 167.868 166.96C168.52 167.429 169.072 168.024 169.49 168.71C169.908 169.396 170.184 170.158 170.301 170.953C170.419 171.748 170.376 172.558 170.175 173.335C169.974 174.113 169.618 174.842 169.13 175.48C161.33 186.33 150 192.55 138.05 192.55C115.39 192.57 96.9301 170.25 96.9301 142.83H96.8901ZM186 334.3C186 335.891 185.368 337.417 184.243 338.543C183.117 339.668 181.591 340.3 180 340.3C178.409 340.3 176.883 339.668 175.757 338.543C174.632 337.417 174 335.891 174 334.3V296.53H144V334.3C144 335.891 143.368 337.417 142.243 338.543C141.117 339.668 139.591 340.3 138 340.3C136.409 340.3 134.883 339.668 133.757 338.543C132.632 337.417 132 335.891 132 334.3V246.76C132 245.169 132.632 243.643 133.757 242.517C134.883 241.392 136.409 240.76 138 240.76C139.591 240.76 141.117 241.392 142.243 242.517C143.368 243.643 144 245.169 144 246.76V284.53H174V246.76C174 245.169 174.632 243.643 175.757 242.517C176.883 241.392 178.409 240.76 180 240.76C181.591 240.76 183.117 241.392 184.243 242.517C185.368 243.643 186 245.169 186 246.76V334.3ZM184.5 180V99.08C184.5 97.4887 185.132 95.9626 186.257 94.8374C187.383 93.7121 188.909 93.08 190.5 93.08C192.091 93.08 193.617 93.7121 194.743 94.8374C195.868 95.9626 196.5 97.4887 196.5 99.08V180C196.5 180.159 196.563 180.312 196.676 180.424C196.788 180.537 196.941 180.6 197.1 180.6H223.75C225.341 180.6 226.867 181.232 227.993 182.357C229.118 183.483 229.75 185.009 229.75 186.6C229.75 188.191 229.118 189.717 227.993 190.843C226.867 191.968 225.341 192.6 223.75 192.6H197.1C193.759 192.597 190.556 191.269 188.193 188.907C185.831 186.544 184.503 183.341 184.5 180ZM244 284.53C245.591 284.53 247.117 285.162 248.243 286.287C249.368 287.413 250 288.939 250 290.53C250 292.121 249.368 293.647 248.243 294.773C247.117 295.898 245.591 296.53 244 296.53H208.73V328.3H244C245.591 328.3 247.117 328.932 248.243 330.057C249.368 331.183 250 332.709 250 334.3C250 335.891 249.368 337.417 248.243 338.543C247.117 339.668 245.591 340.3 244 340.3H205.59C203.243 340.297 200.992 339.364 199.332 337.706C197.671 336.047 196.735 333.797 196.73 331.45V249.61C196.735 247.263 197.671 245.013 199.332 243.354C200.992 241.696 203.243 240.763 205.59 240.76H244C245.591 240.76 247.117 241.392 248.243 242.517C249.368 243.643 250 245.169 250 246.76C250 248.351 249.368 249.877 248.243 251.003C247.117 252.128 245.591 252.76 244 252.76H208.73V284.53H244ZM255.9 186.53C255.9 188.121 255.268 189.647 254.143 190.773C253.017 191.898 251.491 192.53 249.9 192.53C248.309 192.53 246.783 191.898 245.657 190.773C244.532 189.647 243.9 188.121 243.9 186.53V99.08C243.9 97.4887 244.532 95.9626 245.657 94.8374C246.783 93.7121 248.309 93.08 249.9 93.08C251.491 93.08 253.017 93.7121 254.143 94.8374C255.268 95.9626 255.9 97.4887 255.9 99.08V186.53ZM308.81 192.53C286.12 192.53 267.65 170.21 267.65 142.79C267.65 115.37 286.12 93.04 308.81 93.04C320.76 93.04 332.09 99.27 339.9 110.12C340.828 111.413 341.205 113.022 340.947 114.592C340.689 116.163 339.818 117.567 338.525 118.495C337.232 119.423 335.623 119.8 334.053 119.542C332.482 119.284 331.078 118.413 330.15 117.12C324.63 109.44 316.85 105.03 308.81 105.03C292.73 105.03 279.65 121.96 279.65 142.78C279.65 163.6 292.73 180.52 308.81 180.52C316.81 180.52 324.63 176.12 330.15 168.44C331.078 167.147 332.482 166.276 334.053 166.018C335.623 165.76 337.232 166.137 338.525 167.065C339.818 167.993 340.689 169.397 340.947 170.968C341.205 172.538 340.828 174.147 339.9 175.44C332.13 186.35 320.8 192.57 308.85 192.57L308.81 192.53ZM374 284.53C375.591 284.53 377.117 285.162 378.243 286.287C379.368 287.413 380 288.939 380 290.53C380 292.121 379.368 293.647 378.243 294.773C377.117 295.898 375.591 296.53 374 296.53H338.73V328.3H374C375.591 328.3 377.117 328.932 378.243 330.057C379.368 331.183 380 332.709 380 334.3C380 335.891 379.368 337.417 378.243 338.543C377.117 339.668 375.591 340.3 374 340.3H335.58C333.234 340.297 330.984 339.364 329.325 337.705C327.666 336.046 326.733 333.796 326.73 331.45V249.61C326.733 247.264 327.666 245.014 329.325 243.355C330.984 241.696 333.234 240.763 335.58 240.76H374C375.591 240.76 377.117 241.392 378.243 242.517C379.368 243.643 380 245.169 380 246.76C380 248.351 379.368 249.877 378.243 251.003C377.117 252.128 375.591 252.76 374 252.76H338.73V284.53H374ZM413 190.29C411.816 191.352 410.258 191.9 408.67 191.813C407.082 191.727 405.593 191.014 404.53 189.83L370.14 151.52L366.16 156V186.53C366.16 188.121 365.528 189.647 364.403 190.773C363.277 191.898 361.751 192.53 360.16 192.53C358.569 192.53 357.043 191.898 355.917 190.773C354.792 189.647 354.16 188.121 354.16 186.53V99.08C354.16 97.4887 354.792 95.9626 355.917 94.8374C357.043 93.7121 358.569 93.08 360.16 93.08C361.751 93.08 363.277 93.7121 364.403 94.8374C365.528 95.9626 366.16 97.4887 366.16 99.08V138.08L402.96 97.08C403.474 96.4551 404.109 95.9406 404.827 95.5676C405.545 95.1945 406.332 94.9706 407.138 94.9092C407.945 94.8478 408.756 94.9503 409.522 95.2104C410.289 95.4706 410.994 95.883 411.597 96.4229C412.2 96.9629 412.687 97.6192 413.03 98.3523C413.372 99.0854 413.563 99.8803 413.59 100.689C413.618 101.498 413.481 102.304 413.189 103.058C412.897 103.813 412.455 104.501 411.89 105.08L378.28 142.52L413.54 181.8C414.069 182.387 414.476 183.073 414.74 183.817C415.003 184.562 415.116 185.352 415.073 186.141C415.031 186.929 414.833 187.702 414.491 188.414C414.148 189.126 413.669 189.764 413.08 190.29H413Z" fill="grey"/>
<path d="M306.92 267.08C306.915 263.284 305.404 259.644 302.72 256.96C300.036 254.276 296.396 252.765 292.6 252.76H270.5V281.4H292.6C296.397 281.397 300.038 279.888 302.723 277.203C305.408 274.518 306.917 270.877 306.92 267.08Z" fill="grey"/>
<path d="M411.1 428.73L318.74 353.56C315.86 351.13 312.218 349.789 308.45 349.77C305.375 349.791 302.363 350.64 299.73 352.23C296.774 353.958 294.439 356.575 293.06 359.709C291.681 362.843 291.327 366.333 292.05 369.68L315.57 486.41C315.996 488.591 317.09 490.585 318.701 492.115C320.312 493.645 322.36 494.635 324.56 494.947C326.759 495.26 329.002 494.879 330.975 493.858C332.948 492.837 334.555 491.226 335.57 489.25L344.45 472.25C348.299 464.821 354.118 458.594 361.271 454.253C368.423 449.912 376.633 447.624 385 447.64H385.16L404.37 447.71C406.582 447.713 408.739 447.031 410.547 445.756C412.354 444.482 413.721 442.678 414.46 440.594C415.2 438.51 415.275 436.248 414.675 434.119C414.075 431.991 412.829 430.101 411.11 428.71L411.1 428.73Z" fill="grey"/>
</svg>
